<svg xmlns="http://www.w3.org/2000/svg" width="17.412" height="21.307" viewBox="0 0 17.412 21.307">
    <path d="M.899 7.832c-1.8 3.126-.656 7.869 1.336 10.746.994 1.438 2 2.729 3.38 2.729h.079a4.174 4.174 0 0 0 1.569-.418 4.3 4.3 0 0 1 1.858-.44 4.04 4.04 0 0 1 1.769.426 3.747 3.747 0 0 0 1.694.406c1.553-.029 2.507-1.422 3.348-2.65a11.748 11.748 0 0 0 1.467-3l.006-.019a.175.175 0 0 0-.093-.214l-.013-.005a4.452 4.452 0 0 1-2.7-4.077 4.582 4.582 0 0 1 2.165-3.831l.017-.011a.175.175 0 0 0 .05-.245 5.04 5.04 0 0 0-3.964-2.153 3.579 3.579 0 0 0-.346-.017 6.909 6.909 0 0 0-2.488.621 4 4 0 0 1-1.192.356 3.9 3.9 0 0 1-1.233-.36 5.973 5.973 0 0 0-2.173-.552H5.38A5.327 5.327 0 0 0 .899 7.832z"/>
    <path d="M12.866 0a4.865 4.865 0 0 0-3.212 1.647A4.558 4.558 0 0 0 8.5 5.027a.175.175 0 0 0 .16.151c.074.006.15.009.226.009a4.115 4.115 0 0 0 3.031-1.555A4.805 4.805 0 0 0 13.05.156.176.176 0 0 0 12.866 0z"/>
</svg>
