<svg xmlns="http://www.w3.org/2000/svg" width="1921" height="1254" viewBox="0 0 1921 1254">
    <defs>
        <style>
            .cls-1{opacity:.34;clip-path:url(#clip-path)}.cls-2{fill:url(#linear-gradient)}
        </style>
        <clipPath id="clip-path">
            <path id="Layer_63" d="M0 0h1921v1254H0z" data-name="Layer 63" transform="translate(0 1393)"/>
        </clipPath>
        <linearGradient id="linear-gradient" x1="1" x2="0" y1=".5" y2=".5" gradientUnits="objectBoundingBox">
            <stop offset="0" stop-color="#3ddeed"/>
            <stop offset=".997" stop-color="#cb00dd"/>
        </linearGradient>
    </defs>
    <g id="Mask_Group_103" class="cls-1" data-name="Mask Group 103" transform="translate(0 -1393)">
        <g id="Group_4896" data-name="Group 4896" transform="translate(-106.779 1566)">
            <g id="Group_4895" data-name="Group 4895">
                <path id="Path_2271" d="M2062.694 661.237l-182.394-7.346.171.082-427.919-490.442-.366-.419-.477.283-670.33 396.9.834.026-277.658-187.913-.4-.27-.365.314-301.033 258.969.472-.073-318.472-136.656L202.873 632.2l.258.111.215-.184 301.266-258.69-.763.044 277.489 188.166.409.278.425-.252 670.215-397.1-.843-.137 428.57 489.864.069.078h.1z" class="cls-2" data-name="Path 2271" transform="translate(115.243 -163.112)"/>
                <path id="Path_2272" d="M2062.426 666.763L1884.545 654.6l.161.081-424.024-481.621-.346-.393-.465.24-171.766 89.314-85.886 44.657-21.469 11.163-20.8 12.407-41.561 24.871-332.365 199.192h.794l-279.243-165.42-.384-.229-.342.291-36.662 31.17-4.582 3.9-4.8 3.623-9.605 7.224-19.217 14.455-76.875 57.819-76.873 57.817c-6.522 4.669-12.515 10.023-18.7 15.13l-18.453 15.454-36.906 30.909.446-.078-319.75-118.826L204.3 627.444l.244.091.2-.168 36.931-30.867 18.462-15.433c6.189-5.1 12.186-10.446 18.712-15.108l76.93-57.747 76.93-57.749 19.232-14.438 9.616-7.218 4.8-3.619 4.588-3.9 36.715-31.155-.726.062 279.09 165.682.4.236.4-.236 332.4-199.053 41.535-24.909 20.781-12.415 21.46-11.186 85.829-44.729 171.662-89.46-.809-.153 424.668 481.033.066.074.1.006z" class="cls-2" data-name="Path 2272" transform="translate(115.276 -152.388)"/>
                <path id="Path_2273" d="M2062.161 672.286l-173.373-16.972.153.078-420.129-472.8-.326-.367-.446.2-281.732 126.59-.045.02-.043.026-395.549 239.671.749-.028L510.6 405.773l-.369-.188-.317.267-41.882 35.2.062-.045L274.55 565.66l-.024.015-.022.018-68.916 56.192.421-.081-321.031-101 320.76 101.883.231.073.19-.155 68.968-56.126-.045.033 193.655-124.469.032-.021.03-.025 41.915-35.159-.686.079 280.692 143.2.382.195.368-.223 395.588-239.607-.088.046 281.615-126.858-.772-.167 420.777 472.212.062.07.092.009z" class="cls-2" data-name="Path 2273" transform="translate(115.307 -141.665)"/>
                <path id="Path_2274" d="M2061.895 677.811l-168.863-21.785.144.076-416.234-463.983-.306-.341-.427.162-283.849 107.791-.071.027-.065.04-396.908 243.153.7-.052-282.405-120.443-.35-.149-.293.244-42.344 35.181.1-.068-193.632 103.813-.04.021-.035.028L207 617.116l.394-.084-322.31-83.172 322.084 84.07.217.057.177-.141 70.065-55.521-.074.049 193.73-103.626.053-.029.047-.039 42.377-35.139-.643.094 282.299 120.717.364.156.339-.207 396.949-243.085-.135.066 283.748-108.065-.733-.179 416.88 463.385.059.065.086.011z" class="cls-2" data-name="Path 2274" transform="translate(115.339 -130.941)"/>
                <path id="Path_2275" d="M2061.628 683.335l-164.353-26.6.135.073-412.339-455.159-.286-.316-.4.126-285.966 88.993-.1.03-.087.054-398.27 246.634.652-.073-283.99-97.956-.329-.114-.27.221-42.805 35.162.145-.088L279.64 557.3l-.059.025-.05.039-71.111 54.986.366-.086-323.586-65.349 323.408 66.256.2.041.165-.127 71.163-54.916-.108.063 193.8-82.783.078-.034.067-.055 42.839-35.12-.6.108 283.9 98.235.343.119.31-.192 398.31-246.563-.185.085 285.881-89.272-.69-.19 412.984 454.56.055.061.08.013z" class="cls-2" data-name="Path 2275" transform="translate(115.37 -120.217)"/>
                <path id="Path_2276" d="M2061.362 688.859l-159.844-31.408.125.07L1493.2 211.179l-.266-.29-.38.093-288.082 70.194-.126.031-.111.069-399.628 250.111.6-.091-285.572-75.468-.306-.081-.246.2-43.267 35.144.194-.105-193.817 62.132-.081.026-.068.051-72.209 54.383.338-.086-324.863-47.521 324.733 48.44.187.028.152-.115 72.261-54.312-.148.076 193.878-61.94.107-.034.088-.071 43.3-35.1-.551.119 285.5 75.752.319.085.282-.176 399.669-250.043-.236.1 288.014-70.48-.645-.2 409.086 445.736.051.056.074.014z" class="cls-2" data-name="Path 2276" transform="translate(115.402 -109.493)"/>
                <path id="Path_2277" d="M2061.1 694.383l-155.334-36.218.114.066-404.555-437.521-.245-.266-.354.063-290.2 51.4-.155.027-.134.085L809.251 525.6l.547-.106-287.154-52.977-.28-.052-.223.179-43.729 35.126.249-.118-193.911 41.291-.105.022-.087.064-73.306 53.781.31-.086-326.141-29.7 326.058 30.624.171.016.14-.1 73.358-53.707-.191.086 193.952-41.1.138-.029.111-.089 43.764-35.082-.5.127 287.1 53.269.293.054.254-.16L1211.1 273.41l-.288.112 290.148-51.685-.6-.2 405.189 436.912.048.051.067.016z" class="cls-2" data-name="Path 2277" transform="translate(115.434 -98.769)"/>
                <path id="Path_2278" d="M2060.829 699.907L1910 658.879l.1.063-400.657-428.7-.225-.241-.327.036-292.314 32.6-.184.021-.157.1L813.895 519.82l.492-.117-288.735-30.494-.253-.027-.2.159-44.191 35.107.308-.126-194.005 20.45-.131.014-.108.077-74.4 53.178.281-.084-327.418-11.874 327.384 12.806.155.006.127-.091 74.456-53.1-.238.091 194.021-20.257.172-.018.137-.108 44.226-35.063-.453.132 288.7 30.785.266.028.227-.145L1217.1 264.14l-.34.121 292.282-32.891-.552-.2 401.291 428.089.044.047.061.016z" class="cls-2" data-name="Path 2278" transform="translate(115.466 -88.045)"/>
                <path id="Path_2279" d="M2060.562 705.431l-146.314-45.837.094.058-396.763-419.88-.206-.218-.3.014-294.43 13.8-.213.01-.18.116-403.712 260.541.437-.122-290.316-8.013-.226-.006-.178.14-44.655 35.093.37-.128-194.1-.392h-.158l-.13.091-75.5 52.575.253-.082-328.694 5.948 328.71-5.013h.138l.115-.079 75.553-52.5-.287.09 194.1.588h.207l.164-.129 44.688-35.044-.4.133 290.308 8.3.237.007.2-.129 403.738-260.493-.393.126 294.416-14.1-.5-.2 397.392 419.266.04.042.054.017z" class="cls-2" data-name="Path 2279" transform="translate(115.498 -77.321)"/>
                <path id="Path_2280" d="M2060.3 713.6l-141.8-50.646.083.054L1525.7 251.952l-.187-.2h-.269l-296.546-5h-.241l-.2.132L823.181 510.9l.383-.124-291.9 14.478-.2.01-.157.122-45.107 35.066.432-.123-194.196-21.234-.184-.02-.153.1L215.5 591.15l.224-.078-329.971 23.768 330.035-22.833.122-.008.1-.069 76.651-51.894-.336.084L486.5 561.55l.241.026.193-.149 45.15-35.025-.354.131 291.909-14.183.208-.01.175-.114 405.1-263.979-.443.128 296.55 4.7-.456-.2 393.494 410.443.036.037.048.017z" class="cls-2" data-name="Path 2280" transform="translate(115.53 -69.244)"/>
                <path id="Path_2281" d="M2060.03 729.084l-137.3-55.454.072.049-388.973-402.237-.169-.175-.241-.019-298.661-23.792-.267-.021-.225.148-406.443 267.483.329-.122-293.478 36.964-.17.021-.136.1-45.578 35.057.493-.111L295 544.9l-.207-.045-.177.117-77.7 51.368.2-.072-331.248 41.587L217.223 597.2l.106-.013.09-.06 77.748-51.29-.384.072 194.247 42.272.272.059.222-.17 45.612-35.006-.305.126 293.514-36.668.179-.023.151-.1 406.453-267.467-.492.127 298.684 23.493-.409-.193L1922.5 673.98l.032.032.042.017z" class="cls-2" data-name="Path 2281" transform="translate(115.562 -68.477)"/>
                <path id="Path_2282" d="M2059.763 744.565L1926.976 684.3l.062.044-385.085-393.411-.151-.154-.213-.03-300.777-42.589-.292-.041-.247.164-407.809 270.952.278-.115-295.06 59.449-.143.029-.116.089-46.04 35.033.552-.094-194.38-62.92-.228-.074-.2.13-78.8 50.765.169-.066-332.525 59.405 332.685-58.477.091-.016.078-.05 78.845-50.686-.428.056 194.319 63.114.3.1.252-.192 46.074-34.987-.259.117 295.117-59.153.15-.03.129-.085 407.806-270.956-.538.122 300.818 42.289-.364-.184 385.695 392.8.028.028.035.016z" class="cls-2" data-name="Path 2282" transform="translate(115.593 -67.71)"/>
                <path id="Path_2283" d="M2059.5 760.046l-128.278-65.07.052.038-381.197-384.59-.134-.135-.187-.038-302.893-61.385-.315-.064-.268.18L837.105 523.4l.229-.105-296.641 81.937-.118.033-.1.073-46.5 35.015.607-.073-194.473-83.762-.244-.105-.225.141-79.894 50.162.142-.059-333.8 77.222 334.009-76.3.076-.017.066-.042 79.942-50.082-.469.036L494.1 641.429l.324.14.283-.213 46.535-34.968-.214.105 296.72-81.639.123-.034.107-.071L1247.141 250.3l-.582.116 302.952 61.084-.32-.173 381.795 383.977.024.024.029.015z" class="cls-2" data-name="Path 2283" transform="translate(115.625 -66.943)"/>
                <path id="Path_2284" d="M2059.23 775.527l-123.769-69.877.042.032L1558.2 329.914l-.118-.118-.161-.042-305.009-80.18-.335-.088-.288.2L841.746 527.57l.183-.092L543.706 631.9l-.093.033-.079.059-46.964 35 .656-.049-194.568-104.6-.257-.138-.248.152-80.992 49.543.115-.05-335.082 95.038 335.332-94.126.061-.017.055-.034 81.04-49.478-.5.014 194.468 104.8.343.185.307-.232 47-34.95-.172.092 298.323-104.126.1-.034.086-.058 410.512-277.936-.622.107 305.085 79.881-.279-.16 377.892 375.154.02.02.024.013z" class="cls-2" data-name="Path 2284" transform="translate(115.657 -66.176)"/>
                <path id="Path_2285" d="M2058.964 791.008L1939.7 716.324l.033.026-373.409-366.95-.1-.1-.138-.044-307.126-98.975-.353-.114-.307.21-411.914 281.359.141-.077-299.805 126.9-.071.03-.062.045-47.426 34.977.7-.022L305.2 568.147l-.265-.171-.27.161-82.091 48.954.09-.041L-113.7 729.9l336.659-111.948.047-.016.044-.026 82.137-48.874-.535-.009 194.542 125.637.358.231.344-.253 47.46-34.931-.132.075 299.926-126.61.074-.031.067-.046 411.864-281.427-.66.1 307.219 98.677-.24-.145 373.993 366.334.016.015.018.011z" class="cls-2" data-name="Path 2285" transform="translate(115.689 -65.408)"/>
                <path id="Path_2286" d="M2058.7 806.488L1943.944 727l.024.02-369.521-358.12-.089-.086-.116-.044L1265 250.995l-.368-.141-.326.225L851.026 535.9l.1-.059-301.387 149.39-.051.025-.045.033-47.888 34.958.742.006-194.754-146.291-.271-.2-.292.169-83.189 48.351.066-.032-337.642 130.665 337.976-129.778.034-.013.033-.019 83.234-48.27-.562-.034L501.747 721.28l.369.278.374-.272 47.921-34.912-.1.058 301.528-149.1.053-.026.048-.034 413.215-284.919-.694.084 309.352 117.474-.2-.13L1943.705 727.3l.012.011.013.009z" class="cls-2" data-name="Path 2286" transform="translate(115.721 -64.64)"/>
                <path id="Path_2287" d="M2058.431 821.968l-110.246-84.3.016.013-365.631-349.3-.075-.073-.1-.042-311.357-136.56-.382-.167-.343.239-414.647 288.29.064-.04L552.759 711.9l-.032.018-.029.021-48.351 34.94.778.033-194.846-167.135-.273-.234-.312.176-84.287 47.747.043-.021-338.924 148.481 339.3-147.6.022-.01.022-.012 84.33-47.67-.584-.058L504.3 747.9l.376.323.4-.29 48.383-34.894-.061.039 303.137-171.587.033-.019.031-.022 414.566-288.411-.724.071 311.485 136.271-.172-.114 366.191 348.693.008.007.008.006z" class="cls-2" data-name="Path 2287" transform="translate(115.752 -63.872)"/>
                <path id="Path_2288" d="M2058.165 837.447l-60.665-51.119-30.329-25.559-15.145-12.8-14.446-13.612-115.574-108.893-231.313-217.587-.064-.06-.078-.04-313.477-155.359-.393-.2-.361.253-380.559 266.862-23.774 16.7-11.893 8.339-12.239 7.81-48.948 31.238-97.9 62.476-97.9 62.476c-16.291 10.45-32.687 20.741-48.893 31.323l-47.275 33.815.811.059-194.94-187.977-.272-.263-.331.182-52.129 28.78-26.064 14.393-6.517 3.6c-2.195 1.154-4.448 2.192-6.668 3.3l-13.373 6.516-106.944 52.27-213.876 104.569L100.8 694.947l107.077-52.01 13.381-6.511c2.222-1.1 4.476-2.137 6.672-3.29l6.52-3.593 26.085-14.37 52.17-28.74-.6-.081 194.761 188.159.38.369.431-.308 47.278-33.757c16.214-10.565 32.619-20.841 48.921-31.276l97.958-62.384 97.956-62.384 48.978-31.191 12.243-7.8 11.9-8.328L896.7 520.78l380.469-267.057-.753.057 313.617 155.068-.14-.1L1821.446 626.1 1937.3 734.676l14.482 13.572 15.181 12.763 30.4 25.48z" class="cls-2" data-name="Path 2288" transform="translate(115.785 -63.104)"/>
                <path id="Path_2289" d="M2057.9 852.927l-459.084-425.561-.052-.048-.062-.034-315.595-174.154-.4-.222-.375.266-772.8 546.965.839.087L315.34 591.405l-.271-.29-.347.187-427.975 230.647L315.206 592.23l-.618-.1 194.843 209 .383.41.457-.323 772.907-546.808-.777.044 315.75 173.865-.113-.082z" class="cls-2" data-name="Path 2289" transform="translate(115.816 -62.335)"/>
                <path id="Path_2290" d="M2058.069 848.559l-451.9-410.424-.05-.045-.06-.033L1286.686 262.5l-.4-.222-.375.27L541.88 797.342l.813.042-228.75-202.722-.268-.237-.314.167-426.767 227.273 427.248-226.341-.581-.07L541.827 798.39l.39.346.423-.3 744.121-534.656-.779.048 319.531 175.257-.113-.085z" class="cls-2" data-name="Path 2290" transform="translate(115.969 -51.816)"/>
                <path id="Path_2291" d="M2058.24 844.19L1613.522 448.9l-.048-.043-.057-.031-323.152-176.949-.407-.223-.375.274-715.255 522.617h.789L312.548 597.926l-.26-.2-.287.151-425.56 223.9 426.037-222.959-.547-.044 262.289 196.87.393.295.4-.29 715.335-522.5-.781.051 323.313 176.65-.1-.073z" class="cls-2" data-name="Path 2291" transform="translate(116.122 -41.297)"/>
                <path id="Path_2292" d="M2058.412 839.821l-437.538-380.15-.046-.04-.054-.029-326.931-178.351-.409-.223-.375.278-686.484 510.441.769-.026L311.156 601.2l-.251-.162-.264.137L-113.711 821.7l424.825-219.59-.514-.024 296.012 190.806.394.254.376-.28 686.547-510.354-.783.055 327.095 178.043-.1-.069z" class="cls-2" data-name="Path 2292" transform="translate(116.274 -30.777)"/>
                <path id="Path_2293" d="M2058.583 835.452l-430.357-365.013-.044-.037-.051-.028-330.71-179.749-.411-.224-.374.284-657.715 498.264.753-.053L309.767 604.47l-.241-.135-.245.125-423.145 217.15L309.749 605.4l-.485-.009L639 790.135l.393.22.36-.273 657.76-498.2-.785.06L1627.6 471.375l-.094-.064z" class="cls-2" data-name="Path 2293" transform="translate(116.427 -20.258)"/>
                <path id="Path_2294" d="M2058.754 831.083l-423.176-349.876-.042-.034-.048-.026L1301 300l-.414-.224-.374.289-628.946 486.086.74-.075L308.38 607.748l-.23-.113-.228.116-421.938 213.775 422.4-212.83h-.458l363.46 178.676.393.193.347-.269L1301.1 301.245l-.787.065 334.657 180.829-.089-.06z" class="cls-2" data-name="Path 2294" transform="translate(116.579 -9.738)"/>
                <path id="Path_2295" d="M2058.926 826.714l-416-334.739-.039-.031-.045-.024-338.265-182.547-.417-.225-.373.294-600.176 473.911.73-.1L307 611.029l-.22-.1-.214.107-420.73 210.4 421.185-209.448-.434.011L703.77 784.612l.393.171.338-.267 600.181-473.905-.789.069 338.439 182.22-.083-.055z" class="cls-2" data-name="Path 2295" transform="translate(116.732 .782)"/>
                <path id="Path_2296" d="M2059.1 822.345l-408.817-319.6-.036-.028-.041-.022-342.051-183.947-.42-.226-.372.3-571.409 461.734.724-.114-431.064-166.13-.211-.081-.2.1-419.524 207.026 419.977-206.076-.412.018 430.908 166.548.394.153.33-.267 571.391-461.756-.792.075L1649.7 503.666l-.076-.05z" class="cls-2" data-name="Path 2296" transform="translate(116.884 11.302)"/>
                <path id="Path_2297" d="M2059.268 817.976l-401.637-304.465-.033-.025-.037-.02-345.828-185.343-.424-.227-.371.308L768.3 777.759l.721-.132L304.235 617.6l-.2-.069-.191.093-418.318 203.648 418.765-202.7-.392.024L768.531 779.08l.4.137.325-.269 542.6-449.607-.794.081 346 185.008-.07-.045z" class="cls-2" data-name="Path 2297" transform="translate(117.037 21.821)"/>
                <path id="Path_2298" d="M2059.439 813.606l-394.458-289.327-.03-.022-.034-.018L1315.311 337.5l-.428-.228-.37.315-513.875 437.376.72-.149-498.5-153.931-.193-.059-.181.087-417.111 200.276 417.554-199.321-.373.027 498.354 154.42.4.124.321-.273 513.81-437.464-.8.087 349.783 186.4-.063-.04z" class="cls-2" data-name="Path 2298" transform="translate(117.19 32.341)"/>
                <path id="Path_2299" d="M2059.611 809.238l-387.28-274.19-.027-.019-.03-.016-353.386-188.14-.432-.23-.37.324-485.109 425.2.723-.167-532.22-147.829-.185-.051-.173.082-415.9 196.9 416.34-195.944-.356.03 532.078 148.356.4.113.318-.279 485.017-425.31-.8.094 353.564 187.795-.056-.035z" class="cls-2" data-name="Path 2299" transform="translate(117.342 42.861)"/>
                <path id="Path_2300" d="M2059.782 804.869l-380.1-259.052-.023-.016-.026-.014-357.166-189.539-.437-.232-.369.334-456.344 413.024.728-.183-565.94-141.732-.177-.044-.165.077-414.7 193.526L300.2 628.451l-.341.033 565.8 142.291.412.1.316-.287 456.225-413.16-.806.1 357.346 189.188-.048-.029z" class="cls-2" data-name="Path 2300" transform="translate(117.495 53.38)"/>
                <path id="Path_2301" d="M2059.953 800.5L1687.03 556.585l-.02-.013-.021-.011-360.944-190.938-.443-.235-.368.345-427.579 400.848.735-.2-599.658-135.633-.17-.038-.158.072-413.488 190.151 413.916-189.19-.327.034L898.032 768l.419.1.316-.3L1326.2 366.793l-.81.11 361.127 190.581-.04-.024z" class="cls-2" data-name="Path 2301" transform="translate(117.647 63.899)"/>
                <path id="Path_2302" d="M2060.124 796.132l-365.745-228.779-.016-.01-.017-.009L1329.623 375l-.45-.237-.366.357-398.816 388.67.745-.22-633.377-129.532-.163-.033-.151.069-412.282 186.775 412.7-185.813-.313.035L930.4 765.235l.429.088.316-.308 398.637-388.86-.816.12 364.908 191.974-.032-.018z" class="cls-2" data-name="Path 2302" transform="translate(117.8 74.418)"/>
                <path id="Path_2303" d="M2060.3 791.763l-358.248-213.447L1333.2 384.375l-.458-.241-.365.371L962.326 761l.757-.24-667.095-123.431-.157-.029-.145.065-411.075 183.4L296.1 638.329l-.3.036 666.974 124.1.441.082.317-.322 369.842-376.71-.822.13 369.015 193.562z" class="cls-2" data-name="Path 2303" transform="translate(117.952 84.937)"/>
                <path id="Path_2304" d="M2060.467 787.4l-179.358-101.371-89.679-50.684-44.86-25.308-22.43-12.651c-7.494-4.187-14.9-8.54-22.553-12.419l-364.808-191.216-.467-.244-.363.386-341.291 364.323.773-.263-700.814-117.332-.151-.025-.14.062-409.868 180.023 410.28-179.059-.291.036L995.146 759.7l.456.076.316-.34 341.047-364.558-.83.142 364.98 190.84c7.659 3.871 15.068 8.218 22.564 12.4l22.443 12.625 44.89 25.245 89.817 50.423z" class="cls-2" data-name="Path 2304" transform="translate(118.105 95.455)"/>
                <path id="Path_2305" d="M2060.638 783.028l-179.672-95.753c-59.91-31.879-119.724-63.946-179.767-95.568l-360.842-188.578-.479-.25-.359.405-312.53 352.15.79-.289-734.533-111.233-.144-.021-.134.057L-115.695 820.6l409.066-175.684-.278.036 734.424 111.971.471.072.318-.359 312.248-352.4-.836.155L1700.741 592.6z" class="cls-2" data-name="Path 2305" transform="translate(118.258 105.974)"/>
                <path id="Path_2306" d="M2060.809 778.661l-180.034-89.9-90.016-44.947-45.023-22.444-22.509-11.225-22.311-11.626-356.981-186.013-.49-.255-.357.427-283.77 339.977.81-.316-768.251-105.133-.14-.019-.13.055-407.454 173.274L292.007 648.21l-.268.036 768.147 105.909.491.068.32-.384 283.451-340.25-.846.172 357.17 185.663 22.323 11.6 22.521 11.2 45.058 22.373 90.146 44.686z" class="cls-2" data-name="Path 2306" transform="translate(118.41 116.491)"/>
                <path id="Path_2307" d="M2060.981 774.295l-180.438-83.769-90.217-41.883-45.12-20.914-11.282-5.225-2.82-1.307-2.76-1.434-5.519-2.868-22.078-11.471-353.234-183.54-.505-.263-.352.452L1091.664 749.9l.811-.339L290.508 650.5l-.135-.017-.124.052L-116 820.434 290.642 651.5l-.258.035 801.874 99.82.5.062.311-.4 254.671-328.074-.856.19 353.432 183.193 22.089 11.45 5.522 2.862 2.761 1.431 2.821 1.3 11.288 5.214 45.159 20.84 90.344 41.627z" class="cls-2" data-name="Path 2307" transform="translate(118.563 127.008)"/>
                <path id="Path_2308" d="M2060.933 777.7l-175.308-82.1-87.654-41.047-43.836-20.5-10.962-5.119-2.74-1.282-2.682-1.4-5.365-2.8-21.46-11.206-343.369-179.275-.475-.248-.352.408-133.5 154.332-66.75 77.166c-11.2 12.791-22.065 25.883-33.023 38.893l-32.836 39.063.764-.312-622.27-62.689-155.257-18.557-19.421-2.227c-3.264-.31-6.413-.813-9.815-.908a36.028 36.028 0 0 0-4.835 1.265c-1.566.48-3.111 1.006-4.663 1.522-12.36 4.23-24.58 8.814-36.807 13.39q-36.651 13.794-73.125 28.046-72.976 28.428-145.742 57.411c-48.509 19.319-97.056 38.549-145.407 58.271 48.409-19.578 97.009-38.664 145.575-57.841q72.875-28.689 145.9-56.981 36.517-14.134 73.144-27.967c12.222-4.563 24.451-9.135 36.785-13.341a82.321 82.321 0 0 1 9.255-2.727c3.084.1 6.411.6 9.62.915l19.415 2.248 155.244 18.719 622.226 63.242.463.047.3-.359 32.791-39.088c10.942-13.02 21.792-26.121 32.982-38.925l66.671-77.229 133.343-154.461-.826.159 343.564 178.932 21.473 11.182 5.367 2.8 2.685 1.4 2.742 1.28 10.966 5.11 43.878 20.419 87.777 40.792z" class="cls-2" data-name="Path 2308" transform="translate(118.521 139.467)"/>
                <path id="Path_2309" d="M2060.886 781.1l-170.181-80.424-85.088-40.211-42.55-20.09-10.641-5.015-2.659-1.256-2.606-1.367-5.212-2.737-20.843-10.938L1387.6 444.058l-.443-.233-.352.363-139.514 144.669-69.755 72.333c-11.787 11.9-22.853 24.5-34.16 36.866l-33.8 37.214.715-.284L484.8 686.089c-51.913-6.065-103.853-12.248-155.826-17.988l-19.5-2.065c-3.253-.325-6.5-.645-9.8-.853a25.126 25.126 0 0 0-4.968.707c-1.609.35-3.2.743-4.788 1.161-12.661 3.421-25.083 7.564-37.511 11.685-24.824 8.332-49.5 17.086-74.152 25.926q-73.9 26.632-147.407 54.379l-73.492 27.77-36.694 14.022c-12.205 4.739-24.48 9.317-36.577 14.325 12.112-4.97 24.4-9.512 36.618-14.215l36.737-13.912 73.571-27.549q73.635-27.371 147.551-53.946C203.213 696.722 227.9 688 252.719 679.7c12.417-4.107 24.85-8.237 37.456-11.628 1.577-.416 3.16-.8 4.745-1.146a24.8 24.8 0 0 1 4.722-.679c3.226.208 6.479.529 9.728.857l19.493 2.086c51.966 5.794 103.868 12.025 155.819 18.15l625.473 49.43.424.034.289-.321 33.753-37.237c11.293-12.373 22.339-24.979 34.114-36.892l69.678-72.4 139.359-144.8-.8.129 333.7 174.674 20.855 10.917 5.214 2.729 2.606 1.365 2.661 1.254 10.647 5 42.6 20 85.209 39.962z" class="cls-2" data-name="Path 2309" transform="translate(118.479 151.926)"/>
                <path id="Path_2310" d="M2060.839 784.506l-165.052-78.751-82.523-39.377L1772 646.7l-10.318-4.911a83.407 83.407 0 0 1-5.108-2.564l-5.057-2.668-20.228-10.673-323.648-170.738-.414-.219-.346.32-145.517 134.92-72.76 67.459c-12.369 10.985-23.612 23.171-35.289 34.9l-34.78 35.438.664-.259L490.5 692.6c-52.108-5.923-104.267-11.984-156.467-17.4a1406.651 1406.651 0 0 0-19.593-1.906q-4.9-.468-9.837-.751a47.266 47.266 0 0 0-9.871 1.171c-12.9 2.646-25.522 6.327-38.139 9.99-25.2 7.451-50.2 15.533-75.163 23.746-49.889 16.509-99.542 33.75-149.11 51.219q-37.173 13.122-74.259 26.486l-37.055 13.451-18.5 6.815c-6.14 2.332-12.36 4.493-18.385 7.1 6.034-2.589 12.258-4.729 18.4-7.044l18.517-6.757 37.093-13.341q37.122-13.256 74.333-26.259c49.615-17.331 99.325-34.389 149.243-50.786 24.962-8.183 49.971-16.24 75.158-23.657 12.6-3.646 25.234-7.313 38.059-9.928a46.641 46.641 0 0 1 9.633-1.144q4.887.29 9.784.76a1418.32 1418.32 0 0 1 19.578 1.925c52.2 5.471 104.3 11.583 156.471 17.568l628.7 35.608.391.023.276-.282 34.727-35.457c11.66-11.732 22.882-23.922 35.24-34.92l72.682-67.525 145.367-135.055-.76.1 323.831 170.417 20.238 10.65 5.062 2.664q2.512 1.363 5.108 2.56l10.327 4.9 41.316 19.578 82.646 39.128z" class="cls-2" data-name="Path 2310" transform="translate(118.437 164.386)"/>
                <path id="Path_2311" d="M2060.792 787.908l-159.92-77.077-79.959-38.538c-26.607-12.942-53.519-25.253-79.445-39.583l-313.785-166.477-.384-.2-.339.278-151.505 125.081-75.755 62.543-9.47 7.818c-.781.66-1.6 1.284-2.351 1.974l-2.237 2.108-4.472 4.217-17.893 16.865-35.786 33.732.618-.233-632.385-21.31h.047c-52.333-5.862-104.664-11.717-157.082-16.825-6.556-.611-13.107-1.244-19.676-1.747-3.279-.293-6.577-.469-9.871-.662a58.546 58.546 0 0 0-9.924.758c-13.069 1.987-25.873 5.181-38.651 8.4-25.531 6.568-50.839 13.958-76.088 21.522C134 725.772 83.823 741.959 33.746 758.457q-37.552 12.4-75 25.12l-37.405 12.842-18.663 6.539-9.308 3.334c-3.077 1.167-6.239 2.171-9.2 3.591 2.969-1.411 6.133-2.4 9.213-3.563l9.319-3.3 18.682-6.484 37.441-12.725Q-3.7 771.19 33.892 758.916c50.118-16.358 100.356-32.35 150.849-47.469 25.249-7.534 50.559-14.894 76.071-21.429 12.763-3.2 25.571-6.377 38.551-8.334a57.353 57.353 0 0 1 9.739-.738c3.275.2 6.549.373 9.828.671 6.556.509 13.107 1.148 19.656 1.766 52.395 5.159 104.724 11.072 157.046 16.987h.049l632.368 21.794.356.011.261-.246 35.726-33.746 17.863-16.874 4.467-4.217 2.233-2.109c.753-.692 1.566-1.316 2.347-1.976l9.459-7.827 75.678-62.609L1427.8 467.349l-.724.074 313.964 166.158 19.623 10.386c3.292 1.687 6.494 3.557 9.86 5.1l10 4.8 40.037 19.156 80.078 38.3z" class="cls-2" data-name="Path 2311" transform="translate(118.395 176.845)"/>
                <path id="Path_2312" d="M2060.745 791.314l-154.79-75.4-77.393-37.7c-25.754-12.655-51.79-24.737-76.909-38.674l-303.925-162.219-.359-.191-.329.242-247.726 181.185-.028.021-.028.023-62.807 54.74.567-.208-635.438-7.487h.059c-52.6-5.724-105.2-11.409-157.9-16.212-6.59-.565-13.179-1.144-19.782-1.6-3.3-.276-6.611-.407-9.917-.6a70.055 70.055 0 0 0-9.973.405c-13.2 1.409-26.187 4.111-39.128 6.893-25.864 5.7-51.493 12.384-77.053 19.287-51.1 13.912-101.871 29.016-152.517 44.513q-37.976 11.651-75.831 23.708l-37.806 12.209-18.857 6.251-9.4 3.209-4.682 1.657a33.4 33.4 0 0 0-4.582 1.876 33.409 33.409 0 0 1 4.586-1.861l4.688-1.643 9.41-3.179 18.873-6.2 37.842-12.091Q-2.5 770.323 35.509 758.8c50.684-15.357 101.508-30.253 152.617-44.073 25.561-6.876 51.187-13.53 77.028-19.2 12.922-2.763 25.9-5.448 39.018-6.832a68.987 68.987 0 0 1 9.83-.393c3.294.2 6.588.333 9.884.609 6.59.469 13.175 1.055 19.762 1.626 52.671 4.856 105.269 10.6 157.855 16.378h.06L1137 714.867h.325l.244-.214 62.751-54.806-.055.042L1447.8 478.448l-.686.049 304.1 161.9 19.007 10.119c6.286 3.474 12.774 6.539 19.232 9.663l38.755 18.736 77.51 37.467z" class="cls-2" data-name="Path 2312" transform="translate(118.353 189.304)"/>
                <path id="Path_2313" d="M2060.7 794.716l-149.656-73.728-74.827-36.864c-24.905-12.362-50.062-24.219-74.377-37.764l-294.07-157.95-.331-.178-.316.2-256.685 165.246-.036.023-.032.028-64.961 52.306.52-.187-638.495 6.339h.072c-52.885-5.577-105.774-11.085-158.769-15.573-6.628-.533-13.256-1.051-19.892-1.481-3.317-.246-6.645-.363-9.968-.552a90.037 90.037 0 0 0-10.015.172c-13.309.949-26.45 3.171-39.54 5.537-26.168 4.858-52.108 10.826-77.974 17.061-51.713 12.577-103.077 26.552-154.3 41q-38.411 10.865-76.686 22.222-19.135 5.686-38.22 11.534l-19.058 5.951-9.5 3.075-4.728 1.6a27.612 27.612 0 0 0-4.6 1.87 27.623 27.623 0 0 1 4.61-1.855l4.733-1.585 9.506-3.045 19.073-5.891q19.1-5.807 38.254-11.418 38.3-11.247 76.748-21.983c51.259-14.306 102.676-28.061 154.387-40.557 25.862-6.208 51.8-12.144 77.94-16.968 13.071-2.349 26.2-4.552 39.426-5.48 6.607-.549 13.211.011 19.85.4 6.626.437 13.249.963 19.871 1.5 52.968 4.544 105.855 10.109 158.725 15.741h.072l638.5-5.9h.291l.229-.183 64.9-52.375-.068.051 256.515-165.514-.647.025 294.239 157.646 18.39 9.854c6.084 3.379 12.356 6.38 18.6 9.427l37.471 18.317 74.942 36.637z" class="cls-2" data-name="Path 2313" transform="translate(118.311 201.763)"/>
                <path id="Path_2314" d="M2060.651 798.119l-144.525-72.051-72.259-36.026c-24.056-12.069-48.333-23.7-71.843-36.855L1487.813 499.5l-.306-.165-.3.17L1221.565 648.8l-.042.025-.042.03-67.11 49.871.471-.163-641.552 20.163h.083c-53.189-5.418-106.387-10.737-159.7-14.911q-10-.77-20.007-1.379c-6.666-.333-13.37-.847-20.081-.492a384.95 384.95 0 0 0-39.9 4.34c-26.446 4.058-52.685 9.3-78.847 14.865-52.31 11.223-104.269 24.026-156.081 37.375q-38.85 10.047-77.554 20.66-19.349 5.316-38.647 10.824l-19.264 5.624-9.6 2.933-4.775 1.541-2.373.821a8.341 8.341 0 0 0-2.256 1.038 8.323 8.323 0 0 1 2.26-1.031l2.373-.813 4.779-1.526 9.605-2.9 19.281-5.565q19.307-5.469 38.676-10.7Q0 768.923 38.88 759.012c51.841-13.212 103.85-25.775 156.151-36.932 26.157-5.531 52.39-10.745 78.806-14.769a383.914 383.914 0 0 1 39.79-4.287c6.653-.346 13.3.172 19.977.514q10 .624 19.988 1.4c53.28 4.232 106.476 9.605 159.65 15.079h.084l641.564-19.752.259-.009.21-.157 67.06-49.942-.083.053 265.484-149.58-.607.006L1771.6 654.029c23.513 13.154 47.845 24.674 71.934 36.679l72.374 35.8z" class="cls-2" data-name="Path 2314" transform="translate(118.269 214.223)"/>
                <path id="Path_2315" d="M2060.6 801.523l-139.389-70.377-69.693-35.187c-23.2-11.783-46.605-23.173-69.305-35.947l-274.357-149.423-.28-.153-.286.14-274.6 133.351-.051.026-.049.034-69.263 47.437.422-.144-644.604 33.988h.1c-53.515-5.246-107.041-10.355-160.679-14.232-6.7-.488-13.417-.887-20.128-1.286-6.711-.3-13.44-.775-20.187-.566-13.472.323-26.872 1.689-40.223 3.3-26.7 3.311-53.229 7.84-79.676 12.727-52.887 9.862-105.439 21.448-157.836 33.651q-39.293 9.194-78.435 19.018Q-57.49 782.808-77 787.954q-9.754 2.585-19.478 5.278l-9.7 2.778-4.826 1.475-2.394.8a7.27 7.27 0 0 0-2.26 1.046 7.273 7.273 0 0 1 2.262-1.04l2.4-.789 4.83-1.46 9.709-2.746q9.729-2.68 19.491-5.219 19.524-5.1 39.109-9.945 39.157-9.725 78.478-18.774c52.424-12.063 105.021-23.4 157.893-33.207 26.441-4.856 52.961-9.355 79.63-12.632 13.334-1.6 26.717-2.946 40.124-3.251 6.7-.2 13.394.282 20.106.586 6.7.408 13.409.813 20.111 1.307 53.607 3.935 107.132 9.1 160.629 14.4h.098l644.626-33.6.231-.013.191-.132 69.214-47.511-.1.057 274.456-133.64-.567-.013 274.527 149.137c22.708 12.759 46.17 24.037 69.4 35.76l69.8 34.973z" class="cls-2" data-name="Path 2315" transform="translate(118.226 226.682)"/>
                <path id="Path_2316" d="M2060.556 804.927l-134.255-68.7-67.125-34.349c-22.35-11.5-44.884-22.636-66.771-35.037L1527.9 521.679l-.257-.142-.269.112-283.556 117.409-.059.026-.057.036-71.415 45 .376-.125L525 731.81h.106q-40.388-3.849-80.812-7.309c-26.949-2.288-53.908-4.482-80.9-6.233-6.747-.458-13.5-.817-20.255-1.195-6.753-.284-13.519-.717-20.3-.622-13.551.119-27.059 1.131-40.527 2.411-26.938 2.625-53.736 6.452-80.46 10.665-53.445 8.51-106.583 18.837-159.568 29.85q-39.732 8.3-79.318 17.292-19.788 4.514-39.523 9.268-9.862 2.394-19.7 4.909a587.874 587.874 0 0 0-9.809 2.612l-4.877 1.405-2.419.77-1.193.433c-.365.178-.851.267-1.07.624.219-.357.7-.444 1.07-.622l1.195-.429 2.422-.762 4.881-1.39a582.769 582.769 0 0 1 9.818-2.579q9.834-2.506 19.709-4.847 19.74-4.721 39.549-9.143 39.6-8.891 79.365-17.042C95.391 749 148.569 738.943 202 730.473c26.717-4.183 53.5-7.978 80.411-10.571 13.453-1.263 26.942-2.256 40.438-2.362 6.745-.087 13.485.352 20.238.643 6.747.384 13.5.749 20.238 1.218 26.978 1.776 53.931 4 80.874 6.318s53.874 4.8 80.788 7.394l.055.006h.053l647.691-47.45.2-.015.172-.108 71.368-45.079-.117.059 283.43-117.714-.526-.028 264.667 144.88c21.912 12.356 44.494 23.407 66.877 34.841l67.231 34.141z" class="cls-2" data-name="Path 2316" transform="translate(118.185 239.141)"/>
                <path id="Path_2317" d="M2060.508 808.331l-129.117-67.021-64.555-33.51c-21.5-11.219-43.163-22.1-64.239-34.126l-254.656-140.906-.236-.13-.252.087-292.507 101.465-.068.025-.066.036-73.565 42.568.329-.106-650.721 61.641h.119q-40.662-3.7-81.357-6.976c-27.131-2.18-54.273-4.219-81.444-5.86-13.593-.747-27.167-1.651-40.809-1.776-13.629-.034-27.237.673-40.818 1.649-27.159 2-54.216 5.146-81.207 8.7-53.978 7.173-107.695 16.206-161.263 25.979q-40.168 7.373-80.2 15.486-20.011 4.078-39.969 8.419c-6.649 1.46-13.294 2.95-19.92 4.514a539.013 539.013 0 0 0-9.919 2.432c-1.649.426-3.3.862-4.932 1.331-.819.233-1.636.475-2.445.741a21.23 21.23 0 0 0-1.205.424c-.363.18-.866.263-1.061.641.2-.376.7-.458 1.063-.639.4-.153.8-.289 1.205-.42.811-.261 1.628-.5 2.447-.732 1.638-.463 3.285-.893 4.934-1.314 3.3-.836 6.611-1.628 9.928-2.4 6.63-1.543 13.277-3.012 19.93-4.45q19.963-4.31 39.992-8.292 40.047-8.016 80.245-15.234c53.585-9.633 107.334-18.392 161.295-25.533 26.983-3.523 54.027-6.634 81.158-8.606 13.563-.961 27.152-1.651 40.739-1.6 13.574.138 27.171 1.059 40.746 1.819 27.157 1.668 54.292 3.737 81.417 5.946s54.237 4.565 81.334 7.063l.059.006.06-.006 650.753-61.3.176-.017.153-.089 73.522-42.647-.132.062 292.4-101.782-.486-.042 254.819 140.633c21.11 11.957 42.815 22.774 64.343 33.925l64.664 33.309z" class="cls-2" data-name="Path 2317" transform="translate(118.142 251.6)"/>
                <path id="Path_2318" d="M2060.461 811.735l-123.977-65.341-61.989-32.67c-20.641-10.932-41.433-21.571-61.705-33.207l-244.807-136.658-.214-.119-.236.066-301.463 85.521-.076.021-.07.038-75.719 40.134.282-.089L536.71 744.9h.129c-54.6-4.663-109.229-8.986-163.941-12.12-13.684-.7-27.354-1.52-41.077-1.736-13.712-.148-27.42.3-41.1 1-27.373 1.443-54.674 3.932-81.922 6.838-54.5 5.859-108.775 13.572-162.921 22.061q-40.6 6.408-81.084 13.6-20.234 3.62-40.419 7.521a1181.553 1181.553 0 0 0-20.147 4.092c-3.351.717-6.7 1.452-10.032 2.239-1.668.4-3.332.8-4.987 1.246-.83.223-1.653.454-2.472.709-.41.129-.817.263-1.218.416-.361.18-.883.261-1.053.656.172-.395.692-.473 1.055-.652.4-.151.809-.284 1.218-.412a60.14 60.14 0 0 1 2.475-.7 177.05 177.05 0 0 1 4.989-1.231c3.338-.777 6.687-1.5 10.038-2.207 6.706-1.407 13.43-2.736 20.157-4.028q20.189-3.874 40.438-7.392 40.493-7.09 81.12-13.339c54.158-8.361 108.464-15.78 162.944-21.622 54.443-5.569 109.255-10.467 163.942-5.923 54.687 3.192 109.308 7.574 163.89 12.3h.064l.066-.006 653.816-75.144.149-.019.136-.07 75.674-40.215-.147.057 301.372-85.846-.448-.053 244.966 136.373c20.306 11.571 41.134 22.148 61.811 33.014l62.089 32.477z" class="cls-2" data-name="Path 2318" transform="translate(118.1 264.059)"/>
                <path id="Path_2319" d="M2060.414 815.138l-118.839-63.66-59.417-31.83c-19.788-10.645-39.706-21.042-59.173-32.288l-234.962-132.409-.193-.11-.216.049-310.419 69.577-.085.019-.078.038-77.868 37.7.24-.072-656.839 89.288h.14c-55-4.438-110.029-8.453-165.13-11.394-55.116-3.969-110.418-.628-165.366 3.848-54.994 4.577-109.823 10.944-164.535 18.106q-41.031 5.415-81.956 11.628-20.453 3.132-40.864 6.568c-6.8 1.159-13.6 2.358-20.376 3.642-3.389.645-6.774 1.31-10.146 2.033a164.47 164.47 0 0 0-5.047 1.157c-.836.206-1.67.427-2.5.673-.414.123-.826.253-1.231.405-.363.176-.9.253-1.051.671.155-.416.688-.49 1.053-.666.4-.153.817-.28 1.231-.4a56.79 56.79 0 0 1 2.5-.666c1.677-.41 3.362-.781 5.049-1.14a447.23 447.23 0 0 1 10.153-2c6.783-1.265 13.58-2.441 20.384-3.578q20.412-3.406 40.881-6.437 40.935-6.12 81.986-11.365c54.725-7.027 109.575-13.094 164.546-17.674 54.954-4.412 110.163-7.689 165.23-3.663 55.077 3 110.1 7.076 165.081 11.573l.072.006.07-.011 656.876-88.991.125-.017.115-.055 77.828-37.785-.161.057 310.345-69.914-.41-.06 235.129 132.116c19.5 11.184 39.455 21.52 59.275 32.1l59.519 31.643z" class="cls-2" data-name="Path 2319" transform="translate(118.058 276.517)"/>
                <path id="Path_2320" d="M2060.367 818.544l-113.7-61.979-56.847-30.99c-18.933-10.359-37.978-20.512-56.641-31.369l-225.114-128.164-.176-.1-.2.034-319.373 53.632-.091.015-.085.038-80.02 35.264.2-.057-659.9 103.115.151-.006c-55.417-4.181-110.865-7.893-166.371-10.654-13.882-.626-27.753-1.326-41.654-1.67-13.9-.31-27.8-.267-41.69-.019-27.789.507-55.553 1.8-83.291 3.464-55.476 3.357-110.84 8.358-166.108 14.162q-41.448 4.39-82.811 9.578c-13.784 1.749-27.56 3.574-41.312 5.562-6.876 1-13.746 2.031-20.6 3.162a415.77 415.77 0 0 0-10.266 1.81c-1.706.329-3.41.671-5.1 1.057-.847.193-1.691.4-2.528.637-.418.117-.836.242-1.244.392a5.73 5.73 0 0 0-.6.251c-.17.106-.439.193-.441.435 0-.242.272-.329.441-.435a6.243 6.243 0 0 1 .6-.246c.408-.151.826-.274 1.244-.391a51.594 51.594 0 0 1 2.53-.626 145.6 145.6 0 0 1 5.106-1.04c3.415-.643 6.84-1.222 10.267-1.778 6.859-1.11 13.733-2.12 20.611-3.1 13.757-1.944 27.536-3.725 41.325-5.431q41.365-5.1 82.832-9.313c55.279-5.662 110.655-10.369 166.113-13.723 55.447-3.258 111.05-5.176 166.522-1.589 55.485 2.82 110.927 6.592 166.325 10.834l.076.006.074-.013 659.938-102.837.1-.017.1-.042 79.982-35.351-.174.053 319.315-53.982-.374-.066L1832.8 694.923c18.7 10.8 37.772 20.892 56.739 31.191l56.945 30.809z" class="cls-2" data-name="Path 2320" transform="translate(118.016 288.975)"/>
                <path id="Path_2321" d="M2060.32 821.947l-108.552-60.294-54.275-30.153c-18.08-10.072-36.249-19.979-54.109-30.45l-215.275-123.92-.159-.091-.183.021-328.328 37.687-.1.011-.091.038-82.172 32.83.155-.045-662.956 116.946.161-.008c-55.854-3.89-111.738-7.3-167.666-9.9-13.984-.609-27.961-1.258-41.962-1.653-14-.371-28-.477-42-.424-28 .119-55.988.868-83.959 1.953-55.947 2.18-111.827 5.8-167.638 10.214q-41.859 3.339-83.65 7.453c-13.926 1.392-27.849 2.865-41.749 4.5-6.95.821-13.9 1.687-20.83 2.651a399.82 399.82 0 0 0-10.382 1.57c-1.725.291-3.449.6-5.164.951a47.58 47.58 0 0 0-2.557.592c-.422.112-.845.231-1.259.38a5.193 5.193 0 0 0-.607.248c-.172.106-.444.2-.429.45-.013-.246.259-.342.429-.448a5 5 0 0 1 .609-.246c.414-.147.834-.265 1.259-.376.847-.221 1.7-.41 2.559-.584 1.715-.35 3.438-.649 5.166-.936a409.046 409.046 0 0 1 10.384-1.537c6.936-.94 13.884-1.783 20.836-2.583 13.905-1.594 27.829-3.022 41.76-4.372q41.801-4.022 83.67-7.182 83.727-6.389 167.634-9.777c27.965-1.052 55.945-1.77 83.925-1.859 13.99-.038 27.982.085 41.964.471 13.979.407 27.963 1.074 41.94 1.7 55.909 2.657 111.786 6.133 167.621 10.085l.081.006.081-.015 663-116.685.078-.013.077-.032 82.136-32.919-.187.047 328.288-38.049-.342-.072 215.456 123.612c17.893 10.412 36.093 20.264 54.2 30.279L1951.581 762z" class="cls-2" data-name="Path 2321" transform="translate(117.973 301.434)"/>
                <path id="Path_2322" d="M2060.275 825.354l-103.406-58.611-51.7-29.3c-17.224-9.788-34.517-19.449-51.575-29.531l-205.438-119.68-.144-.085-.166.011-337.288 21.742-.1.006-.1.036-84.324 30.4.112-.032-666.012 130.763.168-.01q-84.462-5.355-169.007-9.147c-56.357-2.852-112.827-2.939-169.226-1.863-56.41 1.055-112.79 3.315-169.128 6.3q-42.253 2.266-84.462 5.255c-14.066 1.021-28.131 2.118-42.178 3.389-7.023.639-14.045 1.318-21.053 2.107-3.5.395-7.006.817-10.5 1.314-1.745.25-3.489.516-5.225.834a48.76 48.76 0 0 0-2.589.543c-.427.108-.853.221-1.271.365a4.835 4.835 0 0 0-.613.248c-.172.106-.446.214-.416.465-.03-.25.244-.359.416-.462a4.624 4.624 0 0 1 .615-.246c.416-.144.843-.255 1.271-.361a48.361 48.361 0 0 1 2.591-.535c1.736-.314 3.481-.573 5.225-.817 3.493-.486 7-.9 10.5-1.282 7.012-.766 14.032-1.422 21.057-2.037 14.052-1.227 28.116-2.279 42.187-3.256q42.209-2.913 84.471-4.985 84.51-4.241 169.118-5.86c56.4-1.012 112.82-.864 169.16 2.048q84.526 3.782 168.969 9.332l.087.006.083-.017 666.061-130.531.057-.013.055-.019 84.293-30.489-.2.04 337.261-22.112-.31-.074 205.623 119.361c17.091 10.03 34.415 19.637 51.669 29.368l51.794 29.141z" class="cls-2" data-name="Path 2322" transform="translate(117.93 313.891)"/>
                <path id="Path_2323" d="M2060.23 828.758l-98.257-56.924-49.126-28.462c-16.369-9.5-32.785-18.914-49.044-28.61L1668.2 599.32l-.129-.076h-.153l-346.239 5.8h-.106l-.1.034-86.474 27.961.072-.019-669.079 144.597.176-.013q-85.172-4.823-170.4-8.387c-56.813-2.591-113.7-3.47-170.565-3.453-56.871-.017-113.735.889-170.582 2.417q-42.632 1.172-85.247 2.99c-14.2.632-28.4 1.339-42.594 2.22-7.095.446-14.187.93-21.269 1.528-3.542.3-7.082.63-10.614 1.04-1.766.206-3.529.429-5.287.707-.877.146-1.753.3-2.621.49-.433.1-.864.208-1.288.348a4.551 4.551 0 0 0-.617.248c-.174.1-.45.225-.4.477-.045-.253.229-.371.4-.475a4.577 4.577 0 0 1 .62-.246c.422-.138.855-.244 1.288-.344.868-.191 1.744-.34 2.623-.482 1.755-.272 3.519-.49 5.285-.69 3.534-.4 7.073-.713 10.616-1.006 7.084-.575 14.179-1.038 21.274-1.46 14.192-.836 28.394-1.5 42.6-2.084q42.61-1.748 85.25-2.716 85.268-2.053 170.567-1.984c56.86.047 113.716.987 170.518 3.64q85.217 3.62 170.372 8.574l.089.006.089-.019 669.119-144.378.038-.009.036-.01 86.447-28.057-.208.034 346.232-6.178-.28-.074 195.8 115.112c16.286 9.646 32.732 19.009 49.131 28.458l49.218 28.3z" class="cls-2" data-name="Path 2323" transform="translate(117.885 326.35)"/>
                <path id="Path_2324" d="M2060.187 837.53l-93.1-55.232c-31.015-18.445-62.11-36.75-93.06-55.309l-185.78-111.207-.119-.07h-.136l-355.195-10.142h-.11l-.108.032-47.017 13.542-23.509 6.77-11.755 3.387-5.877 1.692c-1.974.512-3.967.947-5.947 1.422l-95.248 22.379-190.483 44.81-380.893 89.929.185-.017-171.853-7.47q-42.957-2-85.952-3.128-42.986-1.206-85.984-1.94-85.994-1.541-172-1.4c-28.668.042-57.338.214-86 .664-14.334.231-28.666.524-42.991 1-7.165.238-14.325.52-21.484.917-3.578.2-7.154.431-10.724.743-1.785.159-3.57.338-5.346.573-.887.123-1.776.253-2.653.433-.439.091-.876.193-1.305.325a4.781 4.781 0 0 0-.626.248c-.174.1-.448.236-.388.492-.059-.257.214-.388.39-.49a4.649 4.649 0 0 1 .624-.246c.431-.129.868-.231 1.305-.32.879-.178 1.768-.3 2.655-.424 1.776-.229 3.561-.4 5.346-.556 3.572-.3 7.148-.518 10.726-.709 7.156-.373 14.319-.632 21.484-.847 14.325-.424 28.657-.673 42.991-.859 28.663-.359 57.331-.437 86-.388q86 .169 171.985 1.838 42.992.805 85.973 2.033 42.982 1.213 85.937 3.222l171.832 7.659h.1l.089-.021 381.01-89.524 190.466-44.92 95.229-22.485c1.98-.48 3.973-.915 5.947-1.428l5.876-1.7 11.755-3.4 23.513-6.8L1332.97 607l-.216.027 355.205 9.754-.255-.072 185.977 110.87c31.006 18.462 62.159 36.667 93.231 55.014z" class="cls-2" data-name="Path 2324" transform="translate(117.84 333.439)"/>
                <path id="Path_2325" d="M2060.14 849.373l-351.854-214.061-.106-.064-.125-.008-364.149-26.087-.114-.009-.11.028-383.035 97.482-382.939 97.86.191-.019q-173.334-7.125-346.708-13.118-86.688-2.973-173.4-5.161c-28.905-.7-57.811-1.333-86.722-1.719-14.455-.187-28.912-.318-43.369-.28-7.228.023-14.457.085-21.683.269a340.8 340.8 0 0 0-10.834.427c-1.8.108-3.606.233-5.4.427-.9.1-1.8.21-2.687.369a11.787 11.787 0 0 0-1.322.3 3.81 3.81 0 0 0-.632.244c-.183.1-.431.259-.371.507-.059-.248.189-.405.373-.505a3.751 3.751 0 0 1 .633-.242 12.178 12.178 0 0 1 1.322-.3 39.692 39.692 0 0 1 2.685-.361c1.8-.187 3.6-.306 5.405-.41 3.61-.2 7.222-.308 10.834-.393 7.226-.161 14.455-.2 21.681-.2 14.457.008 28.912.187 43.364.418 28.908.48 57.811 1.2 86.712 2 57.8 1.609 115.592 3.6 173.381 5.592q173.365 6.106 346.686 13.5h.1l.093-.023L961.08 708.4l382.95-97.822-.223.021 364.176 25.688-.229-.074z" class="cls-2" data-name="Path 2325" transform="translate(117.797 337.46)"/>
                <path id="Path_2326" d="M2060.28 846.867L1706 644.667l-.1-.057-.117-.009-363.478-24.648-.108-.008-.1.025-382.911 92.054-382.816 92.438.18-.017q-172.993-6.726-346.022-12.381-86.516-2.808-173.055-4.86c-28.846-.664-57.694-1.254-86.546-1.615-14.425-.176-28.852-.3-43.28-.261-7.214.023-14.427.083-21.639.257-3.606.089-7.212.206-10.813.4-1.8.1-3.6.223-5.395.4-.9.091-1.793.2-2.683.348a12.749 12.749 0 0 0-1.324.285 4.046 4.046 0 0 0-.637.227c-.183.1-.446.235-.395.486-.051-.251.212-.388.4-.484a3.726 3.726 0 0 1 .637-.225 12.3 12.3 0 0 1 1.322-.28 41.107 41.107 0 0 1 2.685-.34c1.8-.174 3.6-.289 5.395-.384 3.6-.187 7.207-.293 10.813-.371 7.211-.151 14.425-.187 21.636-.187 14.427.008 28.852.178 43.277.4 28.848.454 57.692 1.135 86.536 1.893 57.686 1.524 115.361 3.411 173.035 5.291q173.022 5.775 346 12.763h.093l.089-.021L959.6 713.779l382.826-92.4-.212.019 363.5 24.249-.219-.066z" class="cls-2" data-name="Path 2326" transform="translate(117.657 349.582)"/>
                <path id="Path_2327" d="M2060.42 844.36l-356.7-190.339-.1-.051-.112-.009-362.8-23.209-.1-.006-.1.021L957.726 717.4l-382.695 87.009.174-.017q-172.656-6.322-345.341-11.641-86.344-2.642-172.707-4.563-43.183-.933-86.37-1.511c-14.4-.163-28.793-.278-43.19-.24-7.2.021-14.4.078-21.6.244-3.6.085-7.2.2-10.79.382-1.8.1-3.6.208-5.386.378-.9.087-1.791.185-2.68.327a13.279 13.279 0 0 0-1.324.265 3.978 3.978 0 0 0-.641.212c-.185.089-.461.212-.418.463-.042-.25.236-.371.42-.461a3.979 3.979 0 0 1 .641-.21 13.359 13.359 0 0 1 1.322-.261 43.12 43.12 0 0 1 2.68-.318 129.35 129.35 0 0 1 5.386-.361c3.6-.176 7.195-.274 10.792-.348 7.2-.14 14.4-.174 21.594-.174 14.4.011 28.791.17 43.186.38q43.186.646 86.362 1.789c57.569 1.439 115.129 3.22 172.69 4.992q172.678 5.44 345.32 12.025h.087l.085-.021 382.788-86.587 382.7-86.975-.2.015 362.828 22.812-.206-.059z" class="cls-2" data-name="Path 2327" transform="translate(117.517 361.705)"/>
                <path id="Path_2328" d="M2060.56 841.855l-359.127-178.477-.093-.045-.1-.006-362.132-21.772-.1-.006-.093.019-382.65 81.2L573.7 804.356l.161-.015q-172.315-5.924-344.655-10.9-86.172-2.473-172.361-4.264-43.1-.869-86.2-1.407c-14.366-.151-28.733-.255-43.1-.219-7.182.021-14.368.076-21.55.231-3.591.078-7.182.182-10.77.359-1.793.089-3.587.2-5.376.354-.9.081-1.789.174-2.678.306-.444.064-.887.14-1.324.246a4.508 4.508 0 0 0-.643.2c-.185.085-.473.189-.441.439-.03-.25.257-.352.441-.437a4.523 4.523 0 0 1 .645-.2c.437-.1.881-.178 1.324-.242a50.21 50.21 0 0 1 2.676-.3c1.791-.153 3.584-.252 5.378-.337 3.589-.163 7.18-.255 10.771-.323 7.182-.134 14.366-.163 21.547-.163 14.368.01 28.736.161 43.1.361q43.1.608 86.186 1.683c57.454 1.356 114.9 3.033 172.346 4.694q172.334 5.106 344.634 11.286h.083l.081-.017 382.659-81.164 382.578-81.551-.187.015 362.154 21.371-.2-.051z" class="cls-2" data-name="Path 2328" transform="translate(117.377 373.826)"/>
                <path id="Path_2329" d="M2060.7 839.351l-361.552-166.615-.087-.041-.1-.006-361.459-20.336h-.089l-.087.017-382.519 75.77L572.36 804.3l.151-.013q-171.974-5.523-343.972-10.166-86-2.311-172.015-3.964-43.008-.809-86.02-1.3c-14.338-.14-28.676-.236-43.014-.2-7.169.021-14.34.072-21.507.218-3.584.074-7.169.172-10.749.335-1.789.085-3.58.182-5.367.331-.894.076-1.785.161-2.674.284a16.42 16.42 0 0 0-1.324.229 4.57 4.57 0 0 0-.647.182c-.185.081-.482.163-.463.414-.019-.251.278-.333.463-.412a4.982 4.982 0 0 1 .647-.18c.439-.1.883-.165 1.326-.225.887-.119 1.781-.2 2.674-.276 1.787-.142 3.576-.236 5.367-.314 3.58-.151 7.165-.236 10.749-.3 7.167-.123 14.336-.153 21.505-.151 14.336.01 28.674.155 43.01.34q43.011.573 86.014 1.581c57.337 1.271 114.669 2.844 172 4.4q171.99 4.772 343.953 10.55h.076l.076-.015 382.529-75.738 382.452-76.126-.176.013 361.481 19.935-.183-.045z" class="cls-2" data-name="Path 2329" transform="translate(117.236 385.948)"/>
                <path id="Path_2330" d="M2060.842 836.846l-363.977-154.755-.083-.036h-.089l-360.787-18.9h-.083l-.081.015-382.4 70.347-382.324 70.74.14-.01q-171.633-5.122-343.289-9.427-85.825-2.146-171.669-3.665-42.922-.745-85.846-1.2c-14.308-.129-28.617-.216-42.927-.18-7.154.021-14.308.068-21.463.206-3.576.07-7.152.161-10.728.312-1.787.078-3.574.17-5.357.308-.891.07-1.783.151-2.67.263-.444.057-.887.123-1.326.212a5.7 5.7 0 0 0-.649.168c-.185.076-.488.14-.484.39 0-.25.3-.312.486-.388a5.211 5.211 0 0 1 .649-.165c.437-.087.881-.153 1.324-.208.889-.11 1.778-.187 2.672-.255 1.783-.132 3.57-.216 5.357-.289 3.574-.142 7.15-.221 10.728-.278 7.152-.115 14.306-.14 21.46-.136 14.308.011 28.617.144 42.925.318q42.922.535 85.838 1.477c57.223 1.186 114.439 2.655 171.656 4.1q171.646 4.438 343.272 9.811h.07l.07-.013 382.4-70.311L1336 664.585l-.163.013 360.806 18.5-.172-.04z" class="cls-2" data-name="Path 2330" transform="translate(117.095 398.07)"/>
                <path id="Path_2331" d="M2060.986 834.34l-366.4-142.893-.077-.03h-.083l-360.114-17.458h-.076l-.074.013-382.268 64.92L569.691 804.2l.129-.009q-171.293-4.724-342.605-8.689-85.656-1.98-171.323-3.368-42.836-.681-85.674-1.1c-14.279-.115-28.557-.193-42.838-.159-7.139.019-14.281.066-21.42.193a502 502 0 0 0-10.7.289c-1.785.074-3.568.159-5.348.284a62.63 62.63 0 0 0-2.668.244c-.441.051-.885.112-1.324.193a6.25 6.25 0 0 0-.652.155c-.187.072-.495.115-.507.363.015-.248.323-.289.507-.361a5.7 5.7 0 0 1 .654-.151c.439-.083.881-.142 1.324-.191.887-.1 1.776-.172 2.666-.233 1.783-.123 3.565-.2 5.348-.267 3.567-.13 7.137-.2 10.707-.255 7.139-.1 14.278-.127 21.418-.125 14.279.013 28.557.138 42.836.3q42.836.5 85.666 1.373c57.106 1.1 114.208 2.468 171.312 3.8q171.3 4.1 342.588 9.073h.066l.066-.013 382.273-64.886 382.208-65.272-.153.009 360.133 17.059-.159-.034z" class="cls-2" data-name="Path 2331" transform="translate(116.951 410.191)"/>
                <path id="Path_2332" d="M2061.129 831.834L1692.3 700.8l-.07-.025h-.076l-359.441-16.021h-.07l-.068.011-382.141 59.5-382.077 59.884.119-.008q-170.952-4.323-341.922-7.95-85.484-1.811-170.981-3.069-42.747-.618-85.5-.991-21.373-.156-42.751-.14c-7.124.019-14.251.062-21.375.18-3.561.059-7.124.138-10.686.267-1.779.066-3.559.144-5.338.261-.887.059-1.776.125-2.663.221-.441.047-.885.1-1.324.178a6.94 6.94 0 0 0-.652.14c-.189.07-.5.093-.529.335.032-.242.342-.263.529-.333.214-.059.433-.1.654-.138.439-.072.881-.127 1.324-.174a65.713 65.713 0 0 1 2.663-.212 194.02 194.02 0 0 1 5.337-.244c3.561-.117 7.122-.183 10.686-.231 7.124-.1 14.249-.115 21.373-.11q21.377.019 42.749.28 42.75.462 85.492 1.269l170.968 3.5q170.965 3.769 341.909 8.334h.059l.061-.011 382.143-59.46 382.084-59.857-.138.008 359.458 15.618-.146-.028z" class="cls-2" data-name="Path 2332" transform="translate(116.808 422.313)"/>
                <path id="Path_2333" d="M2061.271 829.331l-371.254-119.168-.064-.021h-.07l-358.768-14.584h-.064l-.064.009-382.009 54.064L567.022 804.1l.11-.006q-170.615-3.922-341.243-7.211-85.312-1.646-170.635-2.77-42.661-.554-85.324-.887-21.332-.14-42.666-.121c-7.11.019-14.221.059-21.331.168-3.555.055-7.11.125-10.664.244-1.776.062-3.553.132-5.327.238-.887.053-1.774.115-2.659.2-.444.042-.885.093-1.324.161a7.616 7.616 0 0 0-.654.125c-.189.068-.5.074-.548.308.051-.234.359-.238.548-.306.217-.053.435-.089.654-.123.441-.066.883-.115 1.324-.157a73.902 73.902 0 0 1 2.659-.193c1.776-.1 3.553-.166 5.329-.219a592.07 592.07 0 0 1 10.662-.212c7.112-.083 14.221-.1 21.333-.1q21.329.019 42.662.259 42.661.43 85.318 1.167l170.627 3.2q170.621 3.438 341.226 7.6h.057l.053-.009 382.016-54.035 381.961-54.432-.125.006 358.783 14.181-.134-.023z" class="cls-2" data-name="Path 2333" transform="translate(116.666 434.435)"/>
                <path id="Path_2334" d="M2061.413 826.825l-373.68-107.3-.057-.017h-.064l-358.1-13.145h-.057l-.057.006L947.52 755l-381.833 49.047.1-.006q-170.274-3.521-340.559-6.471-85.144-1.484-170.294-2.472l-85.152-.783-42.577-.1-21.288.153-10.643.223-5.316.214-2.657.182a27.95 27.95 0 0 0-1.322.144c-.405.1-.951.053-1.22.39.269-.335.815-.291 1.22-.386.441-.059.883-.1 1.324-.14l2.655-.172 5.319-.2 10.641-.187 21.288-.085 42.575.24 85.148 1.065 170.283 2.9q170.277 3.1 340.546 6.855h.049l.051-.006L947.743 756.8l381.837-49.008-.115.006 358.11 12.742-.119-.019z" class="cls-2" data-name="Path 2334" transform="translate(116.524 446.557)"/>
                <path id="Path_2335" d="M2061.555 824.319l-376.105-95.441-.053-.015h-.053l-357.425-11.709h-.102l-381.753 43.223-381.712 43.617h.089q-169.937-3.12-339.878-5.732-84.972-1.315-169.95-2.171l-84.98-.681-42.49-.083-21.246.142-10.62.2-5.31.193-2.651.161-1.32.127c-.414.087-.94.045-1.239.348.3-.3.826-.257 1.239-.344l1.322-.123 2.651-.153 5.308-.174 10.622-.165 21.244-.07 42.488.221 84.976.961 169.941 2.6q169.937 2.769 339.867 6.116h.044l.043-.006 381.759-43.184 381.714-43.581h-.1l357.436 11.3-.106-.015z" class="cls-2" data-name="Path 2335" transform="translate(116.382 458.678)"/>
                <path id="Path_2336" d="M2061.7 821.815l-378.531-83.578-.047-.011h-.049l-356.75-10.268h-.09l-381.627 37.795-381.587 38.192h.076l-339.2-4.994q-84.8-1.149-169.606-1.874l-84.808-.577-42.4-.064-21.2.127-10.6.178-5.3.168-2.646.142-1.32.112c-.418.076-.927.034-1.254.306.327-.269.838-.225 1.254-.3l1.322-.108 2.646-.134 5.3-.151 10.6-.142 21.2-.057 42.4.2 84.8.857 169.6 2.3 339.188 5.378h.078l381.63-37.76 381.593-38.152h-.089l356.761 9.866-.093-.01z" class="cls-2" data-name="Path 2336" transform="translate(116.24 470.799)"/>
                <path id="Path_2337" d="M2061.84 819.311L1680.883 747.6l-.04-.009h-.04l-356.079-8.831h-.076l-381.5 32.369-381.464 32.766h.066l-338.518-4.255q-84.631-.987-169.266-1.577l-84.634-.473-42.318-.045-21.159.115-10.58.155-5.289.147-2.64.121a9.154 9.154 0 0 0-2.589.359 9.149 9.149 0 0 1 2.589-.35l2.642-.112 5.287-.13 10.58-.119 21.159-.045 42.316.182 84.632.756 169.258 2 338.511 4.637h.066l381.5-32.333 381.468-32.728h-.074l356.086 8.428-.081-.006z" class="cls-2" data-name="Path 2337" transform="translate(116.098 482.921)"/>
                <path id="Path_2338" d="M2061.982 816.807L1678.6 756.956l-.034-.006h-.034l-355.4-7.392h-.066L941.692 776.5l-381.343 27.346h.055l-337.839-3.512-168.924-1.28-84.464-.374-42.231-.023-21.116.1-10.558.132-5.278.123a31.709 31.709 0 0 0-5.236.4 31.735 31.735 0 0 1 5.238-.384l5.278-.106 10.556-.1 21.116-.032 42.231.163 84.46.651 168.918 1.706 337.834 3.9h.056l381.373-26.908L1323.161 751h-.064l355.413 6.991-.066-.006z" class="cls-2" data-name="Path 2338" transform="translate(115.955 495.041)"/>
                <path id="Path_2339" d="M2062.124 814.3l-385.811-47.987h-.053l-354.732-5.953H1321.475L962.542 780.6l-358.918 20.632-44.861 2.559-44.92-.4-89.872-.772-179.744-1.433-179.748-1.1-89.876-.31-44.937-.019-22.471.083-11.233.108-5.616.1a44.044 44.044 0 0 0-5.59.331 44.043 44.043 0 0 1 5.59-.312l5.616-.083 11.235-.072 22.468-.009 44.937.168 89.872.607 179.745 1.522 179.742 1.636 89.872.874 44.952.452 44.873-2.509 358.957-20.227 358.94-20.626h-.051l354.738 5.552h-.053z" class="cls-2" data-name="Path 2339" transform="translate(115.813 507.163)"/>
                <path id="Path_2340" d="M2062.266 811.772l-388.236-36.121h-.04l-223.737-2.851-111.871-1.426c-18.653-.7-37.271.677-55.9 1.341l-55.888 2.354L779.5 794.123l-223.533 9.587-223.741-1.4-223.741-1.127-111.872-.308-55.937-.04-27.969.06-13.984.085c-4.654.089-9.336-.013-13.967.354 4.631-.352 9.313-.233 13.967-.308l13.986-.04 27.967.034 55.935.225 111.869.677 223.739 1.5 223.739 1.651 223.565-9.332 447.091-19.13 55.886-2.411c18.631-.683 37.252-2.078 55.9-1.4l111.859 1.3 223.717 2.6h-.04z" class="cls-2" data-name="Path 2340" transform="translate(115.671 519.308)"/>
                <path id="Path_2341" d="M2062.408 809.293l-271.829-16.963-67.962-4.175-33.982-2.084-16.991-1.038-17.021-.148-136.171-1.185-136.174-1.186-34.044-.295-17.021-.148-8.513-.071-4.255-.038-4.253.115-68.057 1.9-272.228 7.6-272.226 7.9-136.114 3.954-8.506.248c-2.814.034-5.666-.013-8.5-.015l-17.021-.07-34.04-.144-68.082-.274-272.335-.976-136.167-.216-68.083-.026-34.043.047c-11.343.079-22.7-.042-34.033.327 11.333-.331 22.689-.174 34.033-.214l34.043.066 68.083.25 136.165.669 272.33 1.295 68.082.352 34.041.178 17.021.091c2.842.006 5.664.055 8.521.023l8.508-.238 136.114-3.8 272.229-7.6 272.224-7.906 68.057-1.978 4.253-.119 4.255.032 8.508.066 17.018.127 34.039.259 136.152 1.031 136.155 1.031 17.018.127 16.994 1.026 33.982 2.044 67.962 4.083z" class="cls-2" data-name="Path 2341" transform="translate(115.529 531.405)"/>
                <path id="Path_2342" d="M2062.551 806.769l-272.127-8.663-68.034-2.1-34.018-1.046-17.008-.524c-5.671-.125-11.344-.078-17.016-.127l-136.131-.633-136.131-.632-68.066-.267-68.057.932-272.23 3.725-272.233 4.025-136.114 2.016c-11.341.257-22.677.1-34.024.11l-34.033-.062-68.063-.117c-181.5-.274-363.009-.758-544.51-.117 45.372-.2 90.75.079 136.125.164l136.127.448 272.256.73 68.063.2 34.031.1c11.339 0 22.7.172 34.037-.072l136.116-1.861 272.229-3.727 272.228-4.03 68.057-1.008 68.061.189 136.121.477 136.123.478c5.673.042 11.346-.009 17.016.11l17.008.5 34.016 1.008L1790.4 799z" class="cls-2" data-name="Path 2342" transform="translate(115.386 543.545)"/>
                <path id="Path_2343" d="M2062.694 804.386l-544.484-.61-544.484-.309-544.484.306-544.484.612 544.484.615 544.484.307L1518.21 805z" class="cls-2" data-name="Path 2343" transform="translate(115.243 555.545)"/>
            </g>
        </g>
    </g>
</svg>
