<svg xmlns="http://www.w3.org/2000/svg" width="22" height="22.001" viewBox="0 0 22 22.001">
    <defs>
        <style>
            .cls-1{fill:#fff}
        </style>
    </defs>
    <g id="Group_1428" data-name="Group 1428" transform="translate(170 -472)">
        <g id="user-avatar-main-picture" transform="translate(-170 472)">
            <g id="Group_580" data-name="Group 580">
                <path id="Path_1177" d="M11 0a11 11 0 1 0 11 11A11.013 11.013 0 0 0 11 0zm6.343 17.063v-.434c0-1.5-1.733-2.047-2.661-2.444a43.742 43.742 0 0 1-1.619-.766.887.887 0 0 1-.442-.637l-.072-.711a3.055 3.055 0 0 0 1.021-1.826h.112a.378.378 0 0 0 .369-.294l.176-1.087a.36.36 0 0 0-.374-.373c0-.023.009-.047.011-.066.023-.131.036-.257.045-.38.011-.1.02-.2.025-.307a2.454 2.454 0 0 0-.212-1.213 2.877 2.877 0 0 0-.676-.985c-.859-.814-1.856-1.13-2.705-.476a1.966 1.966 0 0 0-1.763.746 2.314 2.314 0 0 0-.512 1.039 3.294 3.294 0 0 0-.118.785 3.175 3.175 0 0 0 .08.863.364.364 0 0 0-.339.369l.175 1.087a.378.378 0 0 0 .369.294h.1a3.648 3.648 0 0 0 1.029 1.86l-.069.687a.89.89 0 0 1-.442.637c-.628.307-1.247.6-1.618.755-.873.36-2.661.944-2.661 2.444v.339a8.784 8.784 0 1 1 12.77.094z" class="cls-1" data-name="Path 1177" transform="translate(-.001)"/>
            </g>
        </g>
    </g>
</svg>
