<svg xmlns="http://www.w3.org/2000/svg" width="194.547" height="45.132" viewBox="0 0 194.547 45.132">
    <defs>
        <style>
            .cls-1{fill:url(#linear-gradient)}.cls-2,.cls-3{fill:#fff}.cls-2{opacity:.7}
        </style>
        <linearGradient id="linear-gradient" x1=".5" x2=".5" y2="1" gradientUnits="objectBoundingBox">
            <stop offset="0" stop-color="#f46fff"/>
            <stop offset="1" stop-color="#79dfff"/>
        </linearGradient>
    </defs>
    <g id="Group_4799" data-name="Group 4799" transform="translate(-301.422 -915.77)">
        <g id="Group_106" data-name="Group 106" transform="translate(301.422 915.77)">
            <g id="Group_30" data-name="Group 30">
                <g id="Group_29" data-name="Group 29">
                    <path id="Path_6" d="M2760.537 1997.74a10.445 10.445 0 0 1 0-20.891v-6.3a16.745 16.745 0 1 0 16.746 16.745h-6.3a10.446 10.446 0 0 1-10.446 10.446z" class="cls-1" data-name="Path 6" transform="translate(-2743.792 -1970.549)"/>
                </g>
            </g>
            <path id="Path_7" d="M2792.888 1989.154a3.483 3.483 0 0 1-4.926 0 3.485 3.485 0 0 1 0-4.927l7.9-7.9a3.483 3.483 0 0 1 4.926 0 3.483 3.483 0 0 1 0 4.927z" class="cls-1" data-name="Path 7" transform="translate(-2770.212 -1973.464)"/>
        </g>
        <g id="Group_107" data-name="Group 107" transform="translate(345.821 920.975)">
            <path id="Path_1886" d="M4.862-13.271v-9.267h3.665v-.562H.594v.562h3.665v9.267zm14.448 0v-4.353h2.822l2.331 4.353h.716l-2.2-4.086a1.7 1.7 0 0 0-.225-.351v-.028a2.627 2.627 0 0 0 1.966-2.71 2.515 2.515 0 0 0-1.362-2.359 4.107 4.107 0 0 0-1.769-.295h-2.882v9.829zm0-9.267h2.247a3.654 3.654 0 0 1 1.376.2 2.01 2.01 0 0 1 1.151 1.9 2.063 2.063 0 0 1-2.106 2.261h-2.667zm15.866 9.267l1.264-3.4h4.17l1.278 3.4h.646L38.855-23.1h-.645l-3.679 9.829zm2.977-7.947c.1-.281.225-.674.365-1.179h.028l.365 1.179 1.489 3.987h-3.749zm17.776 7.947a4.921 4.921 0 0 0 3.571-1.292 4.855 4.855 0 0 0 1.334-3.623 4.8 4.8 0 0 0-1.348-3.609 4.859 4.859 0 0 0-3.557-1.305H52.84v9.829zm-2.485-9.267h2.387A4.321 4.321 0 0 1 59-21.387a4.194 4.194 0 0 1 1.193 3.2A4.206 4.206 0 0 1 59-14.97a4.371 4.371 0 0 1-3.173 1.137h-2.383zm23.827 9.267v-.562h-5.04v-4.114h3.917v-.562h-3.917v-4.03H77v-.561h-5.373v9.829z" class="cls-2" data-name="Path 1886" transform="translate(-.594 53.198)"/>
            <g id="Group_55" data-name="Group 55" transform="translate(.405)">
                <path id="Path_8" d="M2850.795 2000.716v-20.17h7.783a6.163 6.163 0 0 1 4.631 1.818 6.476 6.476 0 0 1 1.789 4.744 6.659 6.659 0 0 1-1.789 4.8 6.187 6.187 0 0 1-4.631 1.846h-4.119v6.96zm3.664-10.142h3.437a3.438 3.438 0 0 0 .057-6.875h-3.494z" class="cls-3" data-name="Path 8" transform="translate(-2850.795 -1980.546)"/>
                <path id="Path_9" d="M2911.159 2000.08a7.013 7.013 0 0 1 2.329 5.426 7.191 7.191 0 0 1-2.3 5.455 8.568 8.568 0 0 1-11.307 0 7.19 7.19 0 0 1-2.3-5.455 7.084 7.084 0 0 1 2.3-5.426 8.444 8.444 0 0 1 11.279 0zm-8.693 8.693a4.39 4.39 0 0 0 6.136 0 4.5 4.5 0 0 0 1.25-3.267 4.39 4.39 0 0 0-1.279-3.239 4.253 4.253 0 0 0-6.08 0 4.9 4.9 0 0 0-.028 6.505z" class="cls-3" data-name="Path 9" transform="translate(-2883.2 -1992.581)"/>
                <path id="Path_10" d="M2952.463 2013.52l-4.4-14.488h3.806l2.529 9.517.285 1.533h.056a14.848 14.848 0 0 1 .342-1.533l2.67-9.489h3.21l2.671 9.489.313 1.533h.055a9.7 9.7 0 0 1 .313-1.533l2.528-9.517h3.751l-4.4 14.488h-4.006l-2.443-8.267-.369-1.562h-.057a13.871 13.871 0 0 1-.341 1.563l-2.472 8.267z" class="cls-3" data-name="Path 10" transform="translate(-2918.164 -1993.35)"/>
                <path id="Path_11" d="M3027.075 2000.052a7.126 7.126 0 0 1 5.341-2.131 5.906 5.906 0 0 1 4.716 1.96 7.136 7.136 0 0 1 1.7 4.915 10.272 10.272 0 0 1-.114 1.392h-9.972a4.116 4.116 0 0 0 4.347 3.835 6.614 6.614 0 0 0 4.147-1.591l1.421 2.584a9.154 9.154 0 0 1-5.824 2.074 7.641 7.641 0 0 1-5.653-2.187 8.052 8.052 0 0 1-.114-10.852zm8.153 3.664a2.836 2.836 0 0 0-2.9-3.068 3.494 3.494 0 0 0-3.494 3.068z" class="cls-3" data-name="Path 11" transform="translate(-2971.476 -1992.581)"/>
                <path id="Path_12" d="M3077.086 2013.073v-14.488h3.465v2.364c.682-2.131 3.039-2.562 4.6-2.562.142 0 .37.028.682.056v3.551a6.139 6.139 0 0 0-.881-.056 3.641 3.641 0 0 0-3.182 1.534 6.419 6.419 0 0 0-1.079 3.75v5.852z" class="cls-3" data-name="Path 12" transform="translate(-3007.533 -1992.903)"/>
                <path id="Path_13" d="M3114.2 2000.716v-20.17h7.188c3.75 0 6.25 1.931 6.25 5.2a4.8 4.8 0 0 1-2.443 4.318v.057a4.682 4.682 0 0 1 3.267 4.744 5.128 5.128 0 0 1-1.988 4.375 8.064 8.064 0 0 1-4.971 1.477zm3.665-11.932h3.551a2.393 2.393 0 0 0 2.5-2.585 2.357 2.357 0 0 0-2.557-2.5h-3.495zm0 8.778h3.921a2.912 2.912 0 1 0 0-5.824h-3.921z" class="cls-3" data-name="Path 13" transform="translate(-3033.24 -1980.546)"/>
                <path id="Path_14" d="M3170.855 2004.569a14.776 14.776 0 0 1 5.4-.909h.625v-.2q0-2.557-2.727-2.557a7.067 7.067 0 0 0-4.034 1.391l-1.335-2.584a8.381 8.381 0 0 1 2.528-1.25 9.439 9.439 0 0 1 3.153-.54c3.779 0 6.023 2.131 6.023 5.767v9.062h-3.352v-1.221l.085-1.051h-.057a5.31 5.31 0 0 1-4.574 2.613 5.093 5.093 0 0 1-3.409-1.193 4.066 4.066 0 0 1-1.364-3.153 4.314 4.314 0 0 1 3.038-4.175zm2.727 5.767a2.908 2.908 0 0 0 2.386-1.193 4.158 4.158 0 0 0 .937-2.614v-.4h-.625c-3.267 0-4.886.767-4.886 2.3a1.984 1.984 0 0 0 2.188 1.907z" class="cls-3" data-name="Path 14" transform="translate(-3070.376 -1992.581)"/>
                <path id="Path_15" d="M3217.631 2012.751v-14.489h3.465v2.292c.369-.767 1.784-2.633 5.143-2.633 3.381 0 5.056 1.847 5.056 5.511v9.318h-3.608v-8.58c0-1.931-.568-2.954-2.273-2.954a3.792 3.792 0 0 0-3.04 1.364 5.068 5.068 0 0 0-1.137 3.38v6.79z" class="cls-3" data-name="Path 15" transform="translate(-3104.88 -1992.581)"/>
                <path id="Path_16" d="M3271.274 2000.716v-20.17h3.608v10.795h1.79l3.495-5.113h4.006l-4.574 6.477v.057l5.142 7.954h-4.147l-3.835-6.335h-1.875v6.335z" class="cls-3" data-name="Path 16" transform="translate(-3142.036 -1980.546)"/>
            </g>
            <g id="Group_56" data-name="Group 56" transform="translate(144.618 15.014)">
                <path id="Exclusion_7" d="M2.765 5.53A2.765 2.765 0 1 1 5.53 2.765 2.768 2.768 0 0 1 2.765 5.53zM2.3 3.1h.537l.607 1.148h.629L3.439 3.1a.99.99 0 0 0-.1-.16v-.004a.878.878 0 0 0 .516-.841.846.846 0 0 0-.52-.841 1.511 1.511 0 0 0-.581-.082H1.741v3.077H2.3V3.1zm.5-.486h-.5v-.962h.408a.853.853 0 0 1 .338.052.406.406 0 0 1 .243.42.452.452 0 0 1-.489.491z" class="cls-3" data-name="Exclusion 7"/>
            </g>
        </g>
    </g>
</svg>
