<svg xmlns="http://www.w3.org/2000/svg" width="25.083" height="15.361" viewBox="0 0 25.083 15.361">
    <defs>
        <style>
            .cls-1{fill:url(#linear-gradient)}
        </style>
        <linearGradient id="linear-gradient" x1=".096" x2=".797" y1="-.377" y2="1" gradientUnits="objectBoundingBox">
            <stop offset="0" stop-color="#f46fff"/>
            <stop offset="1" stop-color="#79dfff"/>
        </linearGradient>
    </defs>
    <g id="Group_4904" data-name="Group 4904" transform="translate(-838.896 -1905.598)">
        <g id="Group_4906" data-name="Group 4906">
            <path id="Path_2345" d="M2.148-1.984a1.127 1.127 0 0 1-.833-.291 1.127 1.127 0 0 1-.291-.833v-7.073a1.127 1.127 0 0 1 .291-.833 1.127 1.127 0 0 1 .833-.291h4.574a1.332 1.332 0 0 1 .859.238.837.837 0 0 1 .291.688q0 .952-1.15.952H3.391v1.772h3.067q1.15 0 1.15.939a.837.837 0 0 1-.291.688 1.332 1.332 0 0 1-.859.238H3.391v1.93h3.331q1.15 0 1.15.952a.837.837 0 0 1-.291.688 1.332 1.332 0 0 1-.859.238zm10.934.119a4.984 4.984 0 0 1-2.453-.582A4 4 0 0 1 9-4.113a5.34 5.34 0 0 1-.575-2.538A5.311 5.311 0 0 1 9-9.176a4 4 0 0 1 1.626-1.666 4.984 4.984 0 0 1 2.453-.582 5.022 5.022 0 0 1 2.948.886 1.027 1.027 0 0 1 .324.344 1 1 0 0 1 .1.476 1.064 1.064 0 0 1-.231.694.7.7 0 0 1-.562.284 1.011 1.011 0 0 1-.358-.06 2.144 2.144 0 0 1-.37-.192 3.751 3.751 0 0 0-.873-.4 3.019 3.019 0 0 0-.846-.119 2.125 2.125 0 0 0-1.752.707 3.362 3.362 0 0 0-.575 2.148 3.387 3.387 0 0 0 .575 2.162 2.125 2.125 0 0 0 1.752.707 2.371 2.371 0 0 0 .767-.126q.37-.126.952-.39.278-.145.41-.2a.854.854 0 0 1 .317-.053.7.7 0 0 1 .562.284 1.064 1.064 0 0 1 .231.694 1.013 1.013 0 0 1-.1.469 1 1 0 0 1-.324.35 5.022 5.022 0 0 1-2.944.894zm11.45-9.506a1.107 1.107 0 0 1 .826.331 1.176 1.176 0 0 1 .324.859v7.073a1.207 1.207 0 0 1-.317.873 1.086 1.086 0 0 1-.82.331 1.063 1.063 0 0 1-.9-.4l-4.019-5.008v4.2a1.238 1.238 0 0 1-.3.873 1.059 1.059 0 0 1-.82.331 1.086 1.086 0 0 1-.82-.331 1.207 1.207 0 0 1-.317-.873v-7.073a1.189 1.189 0 0 1 .317-.859 1.086 1.086 0 0 1 .82-.331 1.071 1.071 0 0 1 .886.4l4.019 5v-4.2a1.2 1.2 0 0 1 .311-.866 1.075 1.075 0 0 1 .809-.33z" class="cls-1" data-name="Path 2345" transform="translate(837.872 1917.022)"/>
            <rect id="Rectangle_2585" width="2" height="25.081" class="cls-1" data-name="Rectangle 2585" rx="1" transform="rotate(-90 1379.928 541.031)"/>
        </g>
    </g>
</svg>
