<svg xmlns="http://www.w3.org/2000/svg" id="Group_4879" width="26.328" height="26.327" data-name="Group 4879" viewBox="0 0 26.328 26.327">
    <defs>
        <style>
            .cls-1{fill:url(#linear-gradient)}
        </style>
        <linearGradient id="linear-gradient" x1=".5" x2=".5" y2="1" gradientUnits="objectBoundingBox">
            <stop offset="0" stop-color="#f46fff"/>
            <stop offset="1" stop-color="#79dfff"/>
        </linearGradient>
    </defs>
    <g id="Group_30" data-name="Group 30">
        <g id="Group_29" data-name="Group 29">
            <path id="Path_6" d="M2756.955 1991.923a8.211 8.211 0 0 1 0-16.422v-4.952a13.164 13.164 0 1 0 13.165 13.163h-4.953a8.211 8.211 0 0 1-8.212 8.211z" class="cls-1" data-name="Path 6" transform="translate(-2743.792 -1970.548)"/>
        </g>
    </g>
    <path id="Path_7" d="M2791.615 1986.193a2.738 2.738 0 0 1-3.872 0 2.74 2.74 0 0 1 0-3.873l6.209-6.208a2.738 2.738 0 0 1 3.872 0 2.738 2.738 0 0 1 0 3.873z" class="cls-1" data-name="Path 7" transform="translate(-2773.789 -1973.858)"/>
</svg>
