<svg xmlns="http://www.w3.org/2000/svg" width="20" height="24" viewBox="0 0 20 24">
    <defs>
        <style>
            .cls-1{fill:url(#linear-gradient)}
        </style>
        <linearGradient id="linear-gradient" x1=".5" x2=".5" y2="1" gradientUnits="objectBoundingBox">
            <stop offset="0" stop-color="#f46fff"/>
            <stop offset="1" stop-color="#79dfff"/>
        </linearGradient>
    </defs>
    <g id="shield_2_" data-name="shield (2)" transform="translate(-36.548)">
        <path id="Path_2262" d="M56.251.3a.962.962 0 0 0-.7-.3h-18a.961.961 0 0 0-.7.3.961.961 0 0 0-.3.7v12a7.176 7.176 0 0 0 .523 2.664 9.929 9.929 0 0 0 1.3 2.344A14.459 14.459 0 0 0 40.212 20a21.489 21.489 0 0 0 1.977 1.609q.906.641 1.891 1.211t1.4.774q.414.2.664.312a.926.926 0 0 0 .813 0q.25-.109.664-.312t1.4-.774q.984-.57 1.89-1.211A21.486 21.486 0 0 0 52.884 20a14.48 14.48 0 0 0 1.843-1.992 9.958 9.958 0 0 0 1.3-2.344A7.174 7.174 0 0 0 56.548 13V1a.962.962 0 0 0-.297-.7zM53.548 13q0 2.75-3.672 5.625a22.041 22.041 0 0 1-3.328 2.141V3h7z" class="cls-1" data-name="Path 2262"/>
    </g>
</svg>
