<?xml version="1.0" standalone="no"?>
<!DOCTYPE svg PUBLIC "-//W3C//DTD SVG 20010904//EN"
 "http://www.w3.org/TR/2001/REC-SVG-20010904/DTD/svg10.dtd">
<svg version="1.0" xmlns="http://www.w3.org/2000/svg"
 width="260.000000pt" height="260.000000pt" viewBox="0 0 260.000000 260.000000"
 preserveAspectRatio="xMidYMid meet">
<metadata>
Created by potrace 1.11, written by Peter Selinger 2001-2013
</metadata>
<g transform="translate(0.000000,260.000000) scale(0.100000,-0.100000)"
fill="#000000" stroke="none">
<path d="M1150 2592 c-372 -45 -720 -257 -927 -567 -155 -232 -225 -471 -218
-755 2 -80 6 -158 10 -175 21 -99 28 -128 51 -200 141 -442 512 -770 985 -871
118 -25 381 -25 499 0 270 58 491 178 672 362 227 232 352 510 374 832 l6 82
-246 0 -246 0 0 -42 c-1 -86 -38 -220 -90 -324 -106 -211 -293 -360 -528 -420
-82 -21 -112 -24 -216 -20 -148 5 -212 21 -341 86 -406 202 -562 695 -349
1100 132 250 402 422 677 429 l37 1 0 245 0 246 -62 -3 c-35 -2 -74 -4 -88 -6z"/>
<path d="M2115 2446 c-22 -6 -53 -19 -70 -28 -16 -9 -182 -169 -367 -355 -377
-378 -379 -381 -374 -498 5 -154 113 -258 266 -259 111 0 123 9 496 382 382
382 389 391 382 510 -5 78 -26 128 -77 179 -65 65 -168 93 -256 69z"/>
</g>
</svg>
